<svg version="1.1" id="Layer_1" xmlns="http://www.w3.org/2000/svg" xmlns:xlink="http://www.w3.org/1999/xlink" x="0px" y="0px"
	 width="100%" viewBox="0 0 100 100" enable-background="new 0 0 100 100" xml:space="preserve">
<path fill="#FEFEFF" opacity="1.000000" stroke="none" 
	d="
M100.469849,101.000000 
	C66.959793,101.000000 33.979885,101.000000 1.015129,101.000000 
	C1.015129,67.636429 1.015129,34.318207 1.015129,1.007580 
	C34.353504,1.007580 67.676758,1.007580 101.000000,1.011370 
	C101.000000,34.343441 101.000000,67.671722 100.469849,101.000000 
M52.322903,49.134525 
	C51.920727,49.109703 51.518551,49.084881 50.477505,48.829880 
	C49.647083,50.123329 48.165382,51.425640 48.182823,52.707554 
	C48.198036,53.825768 49.903088,54.920990 50.989819,56.697674 
	C51.337666,56.885883 51.947510,57.286636 51.993492,57.229954 
	C52.554062,56.538952 53.031784,55.780746 54.252590,55.076424 
	C57.450592,55.931820 60.998371,57.598030 61.166115,52.388195 
	C62.297863,53.525391 63.329037,55.164566 64.782722,55.744305 
	C65.421150,55.998920 66.920593,54.094585 68.493294,53.082516 
	C68.493294,53.082516 68.962646,53.136780 69.087929,53.838955 
	C70.341644,54.688282 71.595352,55.537605 72.849068,56.386929 
	C73.142281,56.062077 73.435486,55.737225 73.728699,55.412373 
	C73.367981,54.095135 73.007271,52.777897 72.646553,51.460659 
	C73.018730,51.143051 73.390907,50.825447 73.763092,50.507843 
	C74.976273,51.683041 76.189461,52.858238 76.932747,53.578251 
	C78.936279,54.386620 80.497940,55.016701 82.059830,55.646500 
	C83.693520,50.641804 82.260735,48.544025 77.558487,47.936539 
	C71.690300,47.178432 65.706177,50.443775 59.876625,47.280365 
	C59.331860,46.984745 57.823322,48.465172 55.996391,48.960266 
	C54.971020,49.055851 53.945644,49.151432 52.322903,49.134525 
M33.298805,46.495377 
	C32.585918,44.833435 31.873034,43.171497 31.160149,41.509556 
	C30.539061,42.148075 29.917971,42.786598 29.296883,43.425117 
	C29.296883,46.480244 29.296883,49.535370 29.296883,53.340881 
	C26.066000,53.340881 23.015352,53.340881 19.592667,53.340881 
	C23.610035,59.991615 28.993475,59.548790 35.409206,58.378490 
	C34.960716,54.373451 34.533527,50.558590 33.298805,46.495377 
z"/>
<path fill="#E7F0FC" opacity="1.000000" stroke="none" 
	d="
M68.029091,53.170532 
	C66.920593,54.094585 65.421150,55.998920 64.782722,55.744305 
	C63.329037,55.164566 62.297863,53.525391 61.166115,52.388195 
	C60.998371,57.598030 57.450592,55.931820 53.776978,54.800701 
	C53.274300,54.339073 53.247231,54.153168 53.540627,53.919880 
	C54.555408,52.715683 55.249733,51.558876 56.132561,50.221619 
	C56.468132,49.734440 56.615200,49.427708 56.762268,49.120979 
	C57.823322,48.465172 59.331860,46.984745 59.876625,47.280365 
	C65.706177,50.443775 71.690300,47.178432 77.558487,47.936539 
	C82.260735,48.544025 83.693520,50.641804 82.059723,55.646645 
	C80.497940,55.016701 78.936279,54.386620 76.932747,53.578251 
	C76.189461,52.858238 74.976273,51.683041 73.763092,50.507843 
	C73.390907,50.825447 73.018730,51.143051 72.646553,51.460659 
	C73.007271,52.777897 73.367981,54.095135 73.728699,55.412373 
	C73.435486,55.737225 73.142281,56.062077 72.849068,56.386929 
	C71.595352,55.537605 70.341644,54.688282 69.305466,53.513382 
	C69.914536,53.102558 70.306053,53.017311 70.697578,52.932064 
	C70.085587,52.567780 69.497787,52.132706 68.838310,51.907394 
	C68.725586,51.868881 68.306595,52.726757 68.029091,53.170532 
z"/>
<path fill="#3D87E5" opacity="1.000000" stroke="none" 
	d="
M33.702568,46.619553 
	C34.533527,50.558590 34.960716,54.373451 35.409206,58.378490 
	C28.993475,59.548790 23.610035,59.991615 19.592667,53.340881 
	C23.015352,53.340881 26.066000,53.340881 29.296883,53.340881 
	C29.296883,49.535370 29.296883,46.480244 29.296883,43.425117 
	C29.917971,42.786598 30.539061,42.148075 31.160149,41.509556 
	C31.873034,43.171497 32.585918,44.833435 33.702568,46.619553 
z"/>
<path fill="#DFEBFB" opacity="1.000000" stroke="none" 
	d="
M50.861511,56.026367 
	C49.903088,54.920990 48.198036,53.825768 48.182823,52.707554 
	C48.165382,51.425640 49.647083,50.123329 50.759167,49.378639 
	C50.981056,51.960384 50.921284,53.993378 50.861511,56.026367 
z"/>
<path fill="#3380E3" opacity="1.000000" stroke="none" 
	d="
M50.925667,56.362022 
	C50.921284,53.993378 50.981056,51.960384 51.078602,49.493729 
	C51.518551,49.084881 51.920727,49.109703 52.622162,49.392044 
	C52.921417,49.649559 53.022476,50.039688 52.914074,50.440147 
	C52.943832,51.882828 53.081997,52.925049 53.220161,53.967266 
	C53.247231,54.153168 53.274300,54.339073 53.416183,54.782478 
	C53.031784,55.780746 52.554062,56.538952 51.993492,57.229954 
	C51.947510,57.286636 51.337666,56.885883 50.925667,56.362022 
z"/>
<path fill="#8EB9F0" opacity="1.000000" stroke="none" 
	d="
M68.261192,53.126526 
	C68.306595,52.726757 68.725586,51.868881 68.838310,51.907394 
	C69.497787,52.132706 70.085587,52.567780 70.697578,52.932064 
	C70.306053,53.017311 69.914536,53.102558 69.242828,53.162292 
	C68.962646,53.136780 68.493294,53.082516 68.261192,53.126526 
z"/>
<path fill="#67A1EB" opacity="1.000000" stroke="none" 
	d="
M53.022476,50.039688 
	C53.022476,50.039688 52.921417,49.649559 52.920845,49.448288 
	C53.945644,49.151432 54.971020,49.055851 56.379330,49.040623 
	C56.615200,49.427708 56.468132,49.734440 55.776211,50.119907 
	C54.495064,50.145660 53.758770,50.092674 53.022476,50.039688 
z"/>
<path fill="#FEFEFF" opacity="1.000000" stroke="none" 
	d="
M52.914074,50.440147 
	C53.758770,50.092674 54.495064,50.145660 55.587708,50.300358 
	C55.249733,51.558876 54.555408,52.715683 53.540627,53.919880 
	C53.081997,52.925049 52.943832,51.882828 52.914074,50.440147 
z"/>
</svg>