<?xml version="1.0" standalone="no"?>
<!DOCTYPE svg PUBLIC "-//W3C//DTD SVG 20010904//EN" "http://www.w3.org/TR/2001/REC-SVG-20010904/DTD/svg10.dtd">
<svg xmlns="http://www.w3.org/2000/svg" version="1.0" width="4500.000000pt" height="4500.000000pt" viewBox="0 0 4500.000000 4500.000000" preserveAspectRatio="xMidYMid meet">
<metadata>
Created by potrace 1.16, written by Peter Selinger 2001-2019
<meta name="Producer" content="Online-Convert"/></metadata>
<g transform="translate(0.000000,4500.000000) scale(0.100000,-0.100000)" fill="#000000" stroke="none">
<path d="M10487 25945 c-3 -11 -78 -375 -167 -810 -89 -434 -162 -791 -163 -792 -2 -1 -356 -74 -787 -162 -863 -177 -840 -172 -823 -178 6 -2 369 -77 807 -167 438 -90 799 -165 801 -168 2 -2 77 -359 165 -794 89 -434 164 -796 167 -804 5 -13 6 -13 11 0 3 8 78 369 167 802 88 433 164 791 168 795 4 3 366 80 804 170 438 90 798 165 801 168 8 7 13 6 -812 174 -434 89 -792 163 -794 166 -3 3 -79 363 -168 802 -90 438 -165 802 -167 808 -2 5 -7 1 -10 -10z"/>
<path d="M12160 25951 c0 -4 171 -200 380 -434 l380 -426 0 -1871 0 -1870 -1759 0 -1759 0 -426 380 c-234 209 -428 380 -431 380 -3 0 -5 -346 -5 -770 l0 -770 775 0 775 0 0 -765 0 -765 2575 0 2575 0 0 2695 0 2695 -770 0 -770 0 0 765 0 765 -770 0 c-423 0 -770 -4 -770 -9z m1939 -1971 l361 -405 0 -1872 0 -1873 -1757 0 -1758 0 -412 368 -411 367 1789 3 1789 2 0 1927 c0 1908 0 1927 19 1908 11 -11 182 -202 380 -425z"/>
<path d="M18558 22983 l-3 -1598 -22 -78 c-34 -120 -79 -202 -148 -271 -119 -119 -240 -160 -465 -160 -102 0 -165 5 -214 17 -278 69 -429 276 -461 630 l-7 77 -249 0 -249 0 0 -63 c0 -176 46 -372 125 -532 101 -207 244 -350 450 -450 187 -92 354 -126 610 -127 184 0 314 18 447 63 157 51 259 111 367 213 126 121 198 235 255 406 68 205 66 144 66 1894 l0 1576 -250 0 -250 0 -2 -1597z"/>
<path d="M25940 22535 l0 -2045 250 0 250 0 0 853 c0 510 4 880 10 922 44 307 201 561 428 694 153 89 358 133 531 112 342 -42 531 -230 608 -607 14 -69 16 -202 20 -1026 l4 -948 245 0 244 0 0 934 c0 563 -4 975 -10 1037 -20 205 -63 366 -135 509 -178 354 -497 531 -960 531 -217 1 -368 -34 -540 -122 -159 -81 -315 -215 -403 -348 l-42 -63 0 806 0 806 -250 0 -250 0 0 -2045z"/>
<path d="M23940 23500 c-216 -16 -404 -80 -584 -199 -81 -53 -240 -201 -292 -273 -20 -27 -38 -48 -40 -46 -1 2 -10 86 -18 188 -9 102 -19 204 -22 228 l-5 42 -225 0 -224 0 0 -2110 0 -2110 250 0 250 0 0 867 0 866 49 -69 c165 -234 426 -389 739 -440 126 -20 376 -20 502 0 309 50 551 175 760 393 191 198 313 439 382 754 20 93 22 132 23 364 0 232 -2 272 -23 373 -64 319 -200 581 -407 787 -188 188 -405 306 -663 360 -60 12 -325 38 -342 34 -3 -1 -52 -5 -110 -9z m299 -455 c165 -40 299 -116 422 -235 217 -212 319 -483 319 -850 0 -81 -7 -186 -15 -237 -69 -427 -345 -745 -726 -838 -35 -9 -118 -18 -184 -22 -271 -12 -504 72 -691 249 -199 189 -305 447 -321 778 -7 147 8 303 42 435 98 388 376 660 743 730 96 18 320 13 411 -10z"/>
<path d="M30219 23499 c-331 -23 -617 -146 -844 -361 -221 -209 -355 -470 -421 -819 -25 -129 -30 -474 -10 -625 89 -675 524 -1150 1146 -1250 124 -20 385 -20 510 0 472 76 839 373 994 804 14 40 26 80 26 88 0 12 -38 14 -244 14 l-245 0 -25 -56 c-53 -116 -154 -232 -270 -313 -216 -150 -594 -174 -860 -56 -311 138 -522 459 -552 843 l-7 82 1143 0 1142 0 -5 258 c-5 281 -11 326 -73 512 -138 415 -476 738 -879 838 -157 40 -345 55 -526 41z m306 -434 c301 -53 547 -262 643 -550 19 -55 31 -117 47 -232 l5 -43 -900 0 c-535 0 -900 4 -900 9 0 5 7 44 15 88 22 115 60 219 111 308 62 106 211 254 314 312 82 46 226 98 311 112 87 14 259 12 354 -4z"/>
<path d="M33590 23500 c-333 -23 -600 -137 -793 -339 -76 -80 -123 -143 -167 -223 l-26 -48 -12 218 c-7 119 -15 243 -19 275 l-6 57 -223 0 -224 0 0 -1475 0 -1475 250 0 250 0 0 833 c0 673 3 850 15 927 36 243 140 437 293 550 173 128 362 180 648 180 l154 0 0 265 c0 246 -1 265 -17 263 -10 0 -65 -4 -123 -8z"/>
<path d="M35100 23499 c-265 -21 -542 -128 -741 -287 -199 -160 -327 -386 -356 -632 l-6 -50 254 0 255 0 18 70 c56 219 225 381 472 452 105 30 361 33 464 5 303 -82 462 -309 495 -709 l7 -78 -409 0 c-224 0 -468 -5 -541 -10 -607 -47 -985 -308 -1068 -738 -17 -87 -18 -264 -3 -348 69 -394 358 -659 797 -730 147 -24 391 -21 522 6 280 57 509 209 658 437 l61 93 5 -53 c3 -28 8 -106 11 -172 3 -66 8 -153 11 -192 l6 -73 224 0 224 0 0 908 c0 523 -4 964 -10 1041 -12 155 -36 272 -79 389 -124 340 -412 574 -793 647 -67 13 -349 38 -368 33 -3 0 -52 -4 -110 -9z m856 -1696 c-16 -184 -52 -316 -127 -461 -121 -239 -317 -406 -549 -469 -91 -25 -338 -25 -430 0 -257 69 -400 245 -400 490 0 238 150 409 416 476 129 33 222 38 673 40 l423 1 -6 -77z"/>
<path d="M19493 22458 c4 -1053 4 -1056 57 -1263 107 -417 386 -674 818 -751 134 -23 372 -21 501 6 301 61 548 230 695 473 l34 57 6 -67 c3 -38 8 -117 11 -178 3 -60 8 -140 11 -177 l6 -68 224 0 224 0 0 1475 0 1475 -250 0 -250 0 0 -849 c0 -546 -4 -878 -11 -928 -55 -406 -288 -694 -634 -784 -105 -27 -297 -29 -405 -4 -253 58 -428 233 -495 499 -41 160 -45 272 -45 1194 l0 872 -251 0 -250 0 4 -982z"/>
</g>
</svg>
